{
  "accessors": [
    {
      "bufferView": 0,
      "byteOffset": 0,
      "componentType": 5123,
      "count": 20346,
      "type": "SCALAR",
      "max": [
        18373
      ],
      "min": [
        0
      ]
    },
    {
      "bufferView": 1,
      "byteOffset": 0,
      "componentType": 5126,
      "count": 18374,
      "type": "VEC3",
      "max": [
        0.07497648149728775,
        0.17000000178813934,
        0.12435000389814377
      ],
      "min": [
        -0.07497648149728775,
        -0.07466978579759598,
        7.748603980672897e-10
      ],
      "name": "POSITION"
    },
    {
      "bufferView": 1,
      "byteOffset": 12,
      "componentType": 5126,
      "count": 18374,
      "type": "VEC3",
      "max": [
        1.0000044107437134,
        1.0000044107437134,
        1.0000044107437134
      ],
      "min": [
        -1.0000044107437134,
        -1.0000044107437134,
        -1.0000044107437134
      ],
      "name": "NORMAL"
    }
  ],
  "asset": {
    "generator": "Aspose.3D 23.6.0",
    "version": "2.0"
  },
  "buffers": [
    {
      "uri": "base_link_data.bin",
      "byteLength": 528996
    }
  ],
  "bufferViews": [
    {
      "buffer": 0,
      "byteOffset": 0,
      "byteLength": 40692,
      "target": 34963
    },
    {
      "buffer": 0,
      "byteOffset": 40692,
      "byteLength": 488304,
      "byteStride": 24,
      "target": 34962
    }
  ],
  "meshes": [
    {
      "primitives": [
        {
          "attributes": {
            "POSITION": 1,
            "NORMAL": 2
          },
          "indices": 0,
          "mode": 4
        }
      ],
      "name": ""
    }
  ],
  "nodes": [
    {
      "mesh": 0,
      "name": ""
    }
  ],
  "scene": 0,
  "scenes": [
    {
      "nodes": [
        0
      ]
    }
  ]
}