{
  "accessors": [
    {
      "bufferView": 0,
      "byteOffset": 0,
      "componentType": 5123,
      "count": 12348,
      "type": "SCALAR",
      "max": [
        11468
      ],
      "min": [
        0
      ]
    },
    {
      "bufferView": 1,
      "byteOffset": 0,
      "componentType": 5126,
      "count": 11469,
      "type": "VEC3",
      "max": [
        0.04548719897866249,
        0.022977445274591446,
        0.03590000420808792
      ],
      "min": [
        -0.04759399965405464,
        -0.02299199253320694,
        -0.051899999380111694
      ],
      "name": "POSITION"
    },
    {
      "bufferView": 1,
      "byteOffset": 12,
      "componentType": 5126,
      "count": 11469,
      "type": "VEC3",
      "max": [
        1.0000044107437134,
        1.0000044107437134,
        1.0000044107437134
      ],
      "min": [
        -1.0000044107437134,
        -1.0000044107437134,
        -1.0000044107437134
      ],
      "name": "NORMAL"
    }
  ],
  "asset": {
    "generator": "Aspose.3D 23.6.0",
    "version": "2.0"
  },
  "buffers": [
    {
      "uri": "link_5_data.bin",
      "byteLength": 321048
    }
  ],
  "bufferViews": [
    {
      "buffer": 0,
      "byteOffset": 0,
      "byteLength": 24696,
      "target": 34963
    },
    {
      "buffer": 0,
      "byteOffset": 24696,
      "byteLength": 296352,
      "byteStride": 24,
      "target": 34962
    }
  ],
  "meshes": [
    {
      "primitives": [
        {
          "attributes": {
            "POSITION": 1,
            "NORMAL": 2
          },
          "indices": 0,
          "mode": 4
        }
      ],
      "name": ""
    }
  ],
  "nodes": [
    {
      "mesh": 0,
      "name": ""
    }
  ],
  "scene": 0,
  "scenes": [
    {
      "nodes": [
        0
      ]
    }
  ]
}